<svg xmlns="http://www.w3.org/2000/svg" width="122" height="52" fill="none" viewBox="0 0 122 52"><g clip-path="url(#clip0_1530_10349)"><path d="M0 0h122v52H0z"/><path d="M28.237 10C20.377 10 14 16.141 14 23.713s6.376 13.712 14.237 13.712 14.237-6.141 14.237-13.712C42.474 16.14 36.104 10 28.237 10"/><path fill="url(#paint0_linear_1530_10349)" d="M18.48 5C8.277 5 0 12.972 0 22.8s8.277 17.799 18.48 17.799 18.48-7.972 18.48-17.8S28.691 5 18.48 5m-6.054 16.59c-4.245 0-7.679-3.313-7.679-7.395s3.434-7.396 7.679-7.396 7.686 3.314 7.686 7.396-3.44 7.396-7.686 7.396"/><path fill="#57575a" d="M83.991 22.344v14.507c0 1.437.052 2.909.104 3.755h-3.603l-.163-1.828h-.08c-.798 1.387-2.4 2.113-4.084 2.113-3.1 0-5.582-2.546-5.582-6.457-.029-4.217 2.725-6.685 5.848-6.685 1.624 0 2.857.569 3.448 1.415h.052v-6.812h4.06zm-4.06 11.03c0-.235 0-.49-.052-.718-.244-1.06-1.122-1.906-2.377-1.906-1.868 0-2.799 1.593-2.799 3.577 0 2.112 1.093 3.449 2.776 3.449 1.174 0 2.142-.775 2.378-1.878a4.6 4.6 0 0 0 .081-.874V33.38zM51.01 32.47v-.077c1.55-.54 3.183-2.056 3.183-4.246 0-1.593-.591-2.802-1.684-3.626-.598-.47-1.233-.761-2.133-.875-2.215-.278-9-.15-9-.15-.038 0-.075.015-.104.015v17.074h4.031v-6.813h1.204c1.683.029 2.458.59 2.96 2.78.51 2.134.96 3.55 1.233 4.04h4.164c-.347-.669-.878-2.937-1.44-4.914-.45-1.6-1.144-2.73-2.406-3.214zm-4.105-1.514h-1.602V26.2c.296-.079.857-.128 1.846-.128 1.868 0 2.99.825 2.99 2.396 0 1.572-1.203 2.496-3.234 2.496zm20.607 6.457c-1.093.363-2.215.54-3.603.54-1.898 0-3.551-.767-3.684-2.417l8.41.028c.05-.313.132-.903.132-1.571 0-3.115-1.602-6.273-5.818-6.273-4.511 0-6.593 3.52-6.593 6.714 0 3.96 2.532 6.428 6.97 6.428 1.535 0 2.96-.206 4.186-.619zm-4.777-7.104c1.838 0 2.267 1.621 2.267 2.546h-4.807c.103-1.031.797-2.546 2.54-2.546"/><path fill="url(#paint1_linear_1530_10349)" d="M118.486 32.94c-1.603-.54-2.112-.846-2.112-1.465 0-.618.561-1.002 1.55-1.002 1.093 0 2.245.412 2.828.697l.694-2.674c-.805-.384-2.134-.747-3.662-.747-3.234 0-5.316 1.778-5.316 4.139-.029 1.465 1.012 2.908 3.736 3.754 1.492.491 1.898.797 1.898 1.465 0 .669-.51 1.032-1.735 1.032s-2.725-.484-3.471-.918v3.087c.938.348 2.149.575 3.471.575 3.735 0 5.633-1.728 5.633-4.089-.03-1.827-1.041-3.057-3.529-3.854z"/><path fill="#f7af18" d="M92.962 32.94c-1.602-.54-2.104-.846-2.104-1.465 0-.618.56-1.002 1.55-1.002 1.093 0 2.245.412 2.828.697l.694-2.674c-.797-.384-2.134-.747-3.662-.747-3.227 0-5.316 1.778-5.316 4.139-.03 1.465 1.011 2.908 3.736 3.754 1.499.491 1.897.797 1.897 1.465 0 .669-.509 1.032-1.735 1.032s-2.724-.484-3.477-.918v3.087c.938.348 2.148.575 3.477.575 3.736 0 5.634-1.728 5.634-4.089-.03-1.827-1.041-3.057-3.53-3.854z"/><path fill="url(#paint2_linear_1530_10349)" d="M105.402 34.114c-.184.718-.398 1.67-.583 2.34h-.081c-.162-.67-.428-1.594-.642-2.34l-2.038-6.372h-4.511l4.895 11.698c.133.306.155.512.162.647.155 3.819-4.77 3.122-5.057 3.228v3.2s2.554.057 3.595 0c4.142-.206 5.302-5.297 7.169-10.29l3.382-8.483h-4.356z"/><path fill="url(#paint3_linear_1530_10349)" d="M108.289 22.344h-3.595l-3.633 4.232h3.286z"/></g><defs><linearGradient id="paint0_linear_1530_10349" x1="23.575" x2="14.07" y1="39.909" y2="5.494" gradientUnits="userSpaceOnUse"><stop stop-color="#f7af18"/><stop offset=".32" stop-color="#f4a221"/><stop offset=".9" stop-color="#e85d1f"/></linearGradient><linearGradient id="paint1_linear_1530_10349" x1="112.483" x2="122.015" y1="34.306" y2="34.306" gradientUnits="userSpaceOnUse"><stop stop-color="#ec781f"/><stop offset="1" stop-color="#e85d1f"/></linearGradient><linearGradient id="paint2_linear_1530_10349" x1="97.547" x2="111.693" y1="37.136" y2="37.136" gradientUnits="userSpaceOnUse"><stop stop-color="#f7af18"/><stop offset="1" stop-color="#ec781f"/></linearGradient><linearGradient id="paint3_linear_1530_10349" x1="101.061" x2="108.289" y1="24.456" y2="24.456" gradientUnits="userSpaceOnUse"><stop stop-color="#f7af18"/><stop offset="1" stop-color="#ec781f"/></linearGradient><clipPath id="clip0_1530_10349"><path d="M0 0h122v52H0z"/></clipPath></defs></svg>