<?xml version="1.0" encoding="UTF-8" standalone="no"?>
<svg xmlns="http://www.w3.org/2000/svg" xml:space="preserve" id="svg2" width="510" height="82.881" viewBox="0 0 510 82.881"><g id="g10" transform="matrix(7.8393 0 0 -7.8393 5 85.729)"><g id="g12" fill="#6485c1" transform="scale(.1)"><path id="path14" d="M96.719 102.01V82.826h29.179V11.029h20.661v71.797h29.179v19.184z"/><path id="path16" d="M436.84 102.01h-52.039V82.67h50.629c7.461 0 10.351-3.402 10.351-12.07v-3.242h-41.992c-15.98 0-23.91-7.969-23.91-26.02v-4.3c0-18.552 8.242-26.009 24.812-26.009h61.559v59.797c0 22.891-7.578 31.184-29.41 31.184m-30-71.532c-3.129 0-6.641 1.559-6.641 9.379 0 7.813 3.43 9.18 6.641 9.18h38.941v-18.56z"/><path id="path18" d="M608.4 102.01h-52.027V82.67h50.66c7.418 0 10.309-3.402 10.309-12.07v-3.242h-41.949c-15.981 0-23.942-7.969-23.942-26.02v-4.3c0-18.552 8.242-26.009 24.801-26.009h61.559v59.797c0 22.891-7.579 31.184-29.411 31.184m-30-71.532c-3.128 0-6.636 1.559-6.636 9.379 0 7.813 3.437 9.18 6.636 9.18h38.942v-18.56z"/><path id="path20" d="M182.3 102.01V82.826h29.179V11.029h20.711v71.797h29.18v19.184z"/><path id="path22" d="M470.39 102.01V82.826h29.179V11.029h20.66v71.797h29.18v19.184z"/><path id="path24" d="M371.88 42.898v27.23c0 23.793-9.219 31.84-30.078 31.84H286.45V11.03h56.321c22.109 0 29.109 11.008 29.109 31.867m-21.098-.43c0-8.668-2.929-12.07-10.351-12.07h-33.282v52.23h33.282c7.422 0 10.351-3.398 10.351-12.148z"/><path id="path26" d="M67.539 32.711c-.43.82-28.008 54.609-31.41 59.918-3.899 6.09-8.629 10.351-17.688 10.351C10 102.98 0 99.27 0 79V10.988h20.352v56.723c0 4.059-.23 10.117-.273 11.328-.04 1.012 0 1.95.511 2.223.54.359 1.13-.192 1.559-.934.39-.789 25.973-51.406 31.44-59.957 3.872-6.14 8.642-10.359 17.7-10.359 8.441 0 18.402 3.75 18.402 23.988v68.012H69.339V45.289c0-4.098.23-10.117.308-11.328 0-.98 0-1.95-.507-2.23-.59-.352-1.172.199-1.602.98"/></g></g></svg>
